<svg width="458" height="406" viewBox="0 0 458 406" fill="none" xmlns="http://www.w3.org/2000/svg">
<mask id="mask0_36306_227" style="mask-type:luminance" maskUnits="userSpaceOnUse" x="0" y="0" width="458" height="406">
<path d="M457.703 0H0V405.441H457.703V0Z" fill="white"/>
</mask>
<g mask="url(#mask0_36306_227)">
<path fill-rule="evenodd" clip-rule="evenodd" d="M219.89 0C341.357 0 439.78 98.4235 439.78 219.89C439.78 297.906 399.116 366.509 337.818 405.517H101.963C40.6646 366.434 0 297.906 0 219.89C0 98.4235 98.4235 0 219.89 0Z" fill="#7001FD"/>
<path fill-rule="evenodd" clip-rule="evenodd" d="M351.373 266.956L358.225 280.059C379.311 320.347 396.857 362.292 410.863 405.517H283.523L293.237 317.259L294.894 315.603L351.373 266.956Z" fill="#F18519"/>
<path fill-rule="evenodd" clip-rule="evenodd" d="M275.917 173.277L300.316 190.295C331.04 211.682 356.719 239.47 375.546 271.851C371.479 298.509 318.54 341.658 276.67 333.601L248.054 298.132C233.521 278.402 228.249 253.326 233.596 229.379C238.867 205.356 254.38 184.949 275.917 173.277Z" fill="#C2C2C2"/>
<path fill-rule="evenodd" clip-rule="evenodd" d="M73.1211 405.441L86.2994 216.426C87.5043 199.332 84.8687 175.46 105.352 163.713L177.494 122.295L273.206 168.005C288.794 175.46 300.09 193.759 305.361 215.523L351.297 405.441H73.1211Z" fill="#E7EAEE"/>
<path fill-rule="evenodd" clip-rule="evenodd" d="M98.4987 169.812L79.1454 192.404C54.8218 220.869 36.9746 254.229 26.8838 290.225C37.5771 315 99.6283 343.39 138.109 325.091L156.86 283.523C165.972 260.781 164.767 235.177 153.547 213.339C142.401 191.5 122.295 175.611 98.4987 169.812Z" fill="#C2C2C2"/>
<path fill-rule="evenodd" clip-rule="evenodd" d="M70.862 323.359L215.899 287.514L231.563 330.89C189.166 380.29 140.519 405.441 73.1964 405.441L35.0168 382.624L35.6946 361.162C36.1464 344.143 40.6647 327.426 48.7976 312.365L70.862 323.359Z" fill="#FF9933"/>
<path fill-rule="evenodd" clip-rule="evenodd" d="M249.862 238.265H280.962C286.234 238.265 288.945 242.557 287.062 247.828L265.374 307.47H215.146L236.834 247.828C238.792 242.557 244.59 238.265 249.862 238.265Z" fill="#333333"/>
<path fill-rule="evenodd" clip-rule="evenodd" d="M194.513 298.283L198.504 289.246C203.851 277.197 215.824 269.29 229.002 269.215L224.936 280.36L265.826 287.589C269.742 288.267 272.83 291.43 273.508 295.346C274.185 299.337 272.227 303.253 268.688 305.135L259.953 326.899C256.413 335.709 247.452 341.206 238.039 340.303C228.174 339.399 218.309 337.968 208.519 336.161L194.513 298.283Z" fill="#FF9933"/>
<path fill-rule="evenodd" clip-rule="evenodd" d="M148.878 138.787L205.582 164.089L214.995 140.218L206.637 136.226L221.697 101.059L173.954 83.2872L148.878 138.787Z" fill="#F18519"/>
<path fill-rule="evenodd" clip-rule="evenodd" d="M147.372 40.2881H225.387L233.671 92.7003C237.06 114.162 222.3 131.708 200.838 131.708C179.376 131.708 159.044 114.162 155.655 92.7003L147.372 40.2881Z" fill="#FF9933"/>
<path fill-rule="evenodd" clip-rule="evenodd" d="M205.206 111.301C205.206 115.894 201.742 119.434 196.922 119.434C192.103 119.434 187.584 115.894 186.078 111.301H205.206Z" fill="#E7EAEE"/>
<path fill-rule="evenodd" clip-rule="evenodd" d="M229.529 66.4941L232.09 44.1285C233.445 32.2304 227.571 20.6334 217.104 14.6843C206.712 8.73524 193.76 9.56359 184.12 16.7929C180.656 19.4285 176.439 20.784 172.072 20.784C164.767 20.7087 157.538 22.2901 150.911 25.4529C147.296 27.1096 144.811 30.4983 144.209 34.4895L141.498 36.5227C132.235 43.4508 129.675 56.1773 135.474 66.1176C142.627 78.3924 146.694 92.1732 147.296 106.406C147.598 112.43 152.191 117.4 158.216 118.003L163.562 110.246C166.951 105.352 168.306 99.3272 167.403 93.4534C166.499 88.0314 162.96 82.1576 162.734 76.6604L174.18 77.2628L165.821 52.638C189.241 55.8761 219.89 57.3069 226.969 51.5837L229.529 66.4941Z" fill="#333333"/>
<path fill-rule="evenodd" clip-rule="evenodd" d="M159.345 68.1509C162.734 66.1177 167.629 70.7866 170.34 78.6183C172.975 86.45 172.448 94.4324 169.059 96.4656C165.671 98.4988 160.776 93.8299 158.065 85.9982C155.354 78.1665 155.956 70.1842 159.345 68.1509Z" fill="#FF9933"/>
<path fill-rule="evenodd" clip-rule="evenodd" d="M198.353 72.1419V64.988H194.889C189.316 64.988 183.819 66.1929 178.774 68.5273L180.204 73.1962C184.873 72.5185 189.618 72.1419 194.362 72.1419H198.353Z" fill="#333333"/>
<path fill-rule="evenodd" clip-rule="evenodd" d="M194.211 77.564C194.211 77.8652 194.287 78.1665 194.287 78.4677C194.287 82.4588 192.028 85.697 189.241 85.697C186.455 85.697 184.196 82.4588 184.196 78.4677C184.196 78.1665 184.196 77.8652 184.271 77.564H194.211Z" fill="#333333"/>
<path fill-rule="evenodd" clip-rule="evenodd" d="M210.778 72.1419V64.988H213.64C218.234 64.988 222.676 66.1929 226.894 68.5273L225.689 73.1962C221.848 72.5185 218.008 72.1419 214.092 72.1419H210.778Z" fill="#333333"/>
<path fill-rule="evenodd" clip-rule="evenodd" d="M214.242 77.564C214.242 77.8652 214.242 78.1665 214.242 78.4677C214.242 82.4588 216.125 85.697 218.384 85.697C220.643 85.697 222.526 82.4588 222.526 78.4677C222.526 78.1665 222.526 77.8652 222.526 77.564H214.242Z" fill="#333333"/>
<path fill-rule="evenodd" clip-rule="evenodd" d="M214.167 100.909C217.782 100.909 218.309 98.2729 218.309 99.8543C218.309 101.436 213.414 106.782 209.799 106.782C206.185 106.782 205.206 101.511 205.206 99.8543C205.206 98.1976 210.552 100.909 214.167 100.909Z" fill="#F18519"/>
<path fill-rule="evenodd" clip-rule="evenodd" d="M330.061 311.536H451.904C455.971 311.536 458.456 314.925 457.402 318.991L438.35 392.338C437.295 396.405 433.078 399.794 428.936 399.794H307.093C303.027 399.794 300.542 396.405 301.596 392.338L320.723 319.067C321.778 314.925 325.995 311.536 330.061 311.536Z" fill="#333333"/>
<path fill-rule="evenodd" clip-rule="evenodd" d="M259.199 393.016H410.487C413.951 393.016 416.737 395.802 416.737 399.266C416.737 402.73 413.951 405.517 410.487 405.517H259.199C255.735 405.517 252.949 402.73 252.949 399.266C252.949 395.802 255.735 393.016 259.199 393.016Z" fill="#333333"/>
<path fill-rule="evenodd" clip-rule="evenodd" d="M389.401 368.015C400.245 368.015 409.056 362.518 409.056 355.665C409.056 348.888 400.245 343.39 389.401 343.39C378.557 343.39 369.747 348.888 369.747 355.665C369.672 362.442 378.557 368.015 389.401 368.015Z" fill="#4D4D4D"/>
<path fill-rule="evenodd" clip-rule="evenodd" d="M341.658 146.92C371.103 146.92 395.125 122.898 395.125 93.4533C395.125 64.0092 371.103 39.9869 341.658 39.9869C312.214 39.9869 288.192 64.0092 288.192 93.4533C288.192 122.898 312.214 146.92 341.658 146.92Z" fill="#979797"/>
<path d="M333.928 135.913C361.871 135.394 384.102 112.322 383.584 84.3791C383.065 56.4365 359.993 34.2048 332.05 34.7234C304.108 35.242 281.876 58.3145 282.394 86.2572C282.913 114.2 305.986 136.431 333.928 135.913Z" fill="#E7EAEE"/>
<path fill-rule="evenodd" clip-rule="evenodd" d="M332.998 122.822C353.632 122.822 370.5 105.954 370.5 85.3204C370.5 64.6869 353.632 47.8186 332.998 47.8186C312.365 47.8186 295.496 64.6869 295.496 85.3204C295.496 105.954 312.365 122.822 332.998 122.822Z" fill="#7001FD"/>
<path fill-rule="evenodd" clip-rule="evenodd" d="M332.17 83.5131L308.825 99.4025L333.676 86.6759L332.17 83.5131Z" fill="#FF9933"/>
<path fill-rule="evenodd" clip-rule="evenodd" d="M329.158 53.5418C329.158 51.4332 330.89 49.7012 332.998 49.7012C335.107 49.7012 336.839 51.4332 336.839 53.5418V83.2872L349.49 91.9473C351.222 93.1521 351.674 95.5619 350.469 97.2939C349.264 99.0259 346.854 99.4778 345.122 98.2729L330.965 88.5585C329.835 87.8808 329.082 86.6759 329.082 85.2451V53.5418H329.158Z" fill="#F18519"/>
</g>
</svg>

