<svg width="53" height="53" viewBox="0 0 53 53" fill="none" xmlns="http://www.w3.org/2000/svg">
<path d="M44.7188 29.8125C45.1673 29.8125 45.5555 29.9764 45.8833 30.3042C46.2111 30.632 46.375 31.0202 46.375 31.4688C46.375 31.9173 46.2111 32.3055 45.8833 32.6333C45.5555 32.9611 45.1673 33.125 44.7188 33.125C44.2702 33.125 43.882 32.9611 43.5542 32.6333C43.2264 32.3055 43.0625 31.9173 43.0625 31.4688C43.0625 31.0202 43.2264 30.632 43.5542 30.3042C43.882 29.9764 44.2702 29.8125 44.7188 29.8125ZM29.1138 29.3208C27.7508 28.3892 26.2843 27.6904 24.7144 27.2246C23.1444 26.7588 21.5312 26.5173 19.875 26.5C18.3568 26.5 16.8903 26.6984 15.4756 27.0952C14.0609 27.492 12.741 28.0441 11.5161 28.7515C10.2912 29.4588 9.17839 30.3215 8.17773 31.3394C7.17708 32.3573 6.31445 33.4787 5.58984 34.7036C4.86523 35.9285 4.30452 37.2484 3.90771 38.6631C3.5109 40.0778 3.3125 41.5443 3.3125 43.0625H0C0 41.0439 0.301921 39.0685 0.905762 37.1362C1.5096 35.2039 2.38086 33.4183 3.51953 31.7793C4.6582 30.1403 6.01253 28.6825 7.58252 27.4058C9.15251 26.1291 10.9036 25.1543 12.8359 24.4814C11.8698 23.8604 11.0072 23.1444 10.248 22.3335C9.48893 21.5226 8.83333 20.6341 8.28125 19.668C7.72917 18.7018 7.32373 17.6839 7.06494 16.6143C6.80615 15.5446 6.65951 14.4232 6.625 13.25C6.625 11.4212 6.97005 9.70459 7.66016 8.1001C8.35026 6.49561 9.29053 5.08952 10.481 3.88184C11.6714 2.67415 13.0775 1.72526 14.6992 1.03516C16.321 0.345052 18.0462 0 19.875 0C21.7038 0 23.4204 0.345052 25.0249 1.03516C26.6294 1.72526 28.0355 2.66553 29.2432 3.85596C30.4508 5.04639 31.3997 6.45247 32.0898 8.07422C32.7799 9.69596 33.125 11.4212 33.125 13.25C33.125 14.4059 32.987 15.5187 32.7109 16.5884C32.4349 17.658 32.0208 18.6846 31.4688 19.668C30.9167 20.6514 30.2697 21.5399 29.5278 22.3335C28.786 23.1271 27.9147 23.8431 26.9141 24.4814C28.3115 24.9818 29.6572 25.6719 30.9512 26.5518L29.1138 29.3208ZM9.9375 13.25C9.9375 14.6302 10.1963 15.9155 10.7139 17.106C11.2314 18.2964 11.9388 19.3488 12.8359 20.2632C13.7331 21.1776 14.7855 21.8936 15.9932 22.4111C17.2008 22.9287 18.4948 23.1875 19.875 23.1875C21.238 23.1875 22.5233 22.9287 23.731 22.4111C24.9386 21.8936 25.991 21.1862 26.8882 20.2891C27.7853 19.3919 28.5013 18.3395 29.0361 17.1318C29.571 15.9242 29.8298 14.6302 29.8125 13.25C29.8125 11.887 29.5537 10.6017 29.0361 9.39404C28.5186 8.18636 27.8112 7.13395 26.9141 6.23682C26.0169 5.33968 24.9559 4.6237 23.731 4.08887C22.506 3.55404 21.2207 3.29525 19.875 3.3125C18.4948 3.3125 17.2095 3.57129 16.019 4.08887C14.8286 4.60645 13.7762 5.3138 12.8618 6.21094C11.9474 7.10807 11.2314 8.16911 10.7139 9.39404C10.1963 10.619 9.9375 11.9043 9.9375 13.25ZM43.0625 23.1875C44.4255 23.1875 45.7108 23.4463 46.9185 23.9639C48.1261 24.4814 49.1785 25.1888 50.0757 26.0859C50.9728 26.9831 51.6888 28.0441 52.2236 29.269C52.7585 30.494 53.0173 31.7793 53 33.125C53 34.5052 52.7412 35.7905 52.2236 36.981C51.7061 38.1714 50.9987 39.2238 50.1016 40.1382C49.2044 41.0526 48.1434 41.7686 46.9185 42.2861C45.6935 42.8037 44.4082 43.0625 43.0625 43.0625C41.9411 43.0625 40.8369 42.8641 39.75 42.4673V46.375H36.4375V49.6875H33.125V53H23.1875V45.7021L33.4097 35.4541C33.2199 34.6605 33.125 33.8841 33.125 33.125C33.125 31.762 33.3838 30.4767 33.9014 29.269C34.4189 28.0614 35.1263 27.009 36.0234 26.1118C36.9206 25.2147 37.973 24.4987 39.1807 23.9639C40.3883 23.429 41.6823 23.1702 43.0625 23.1875ZM43.0625 39.75C43.9769 39.75 44.8309 39.5775 45.6245 39.2324C46.4181 38.8874 47.1255 38.4129 47.7466 37.8091C48.3677 37.2052 48.8421 36.5065 49.1699 35.7129C49.4977 34.9193 49.6702 34.0566 49.6875 33.125C49.6875 32.2106 49.515 31.3566 49.1699 30.563C48.8249 29.7694 48.3504 29.062 47.7466 28.4409C47.1427 27.8198 46.444 27.3454 45.6504 27.0176C44.8568 26.6898 43.9941 26.5173 43.0625 26.5C42.1481 26.5 41.2941 26.6725 40.5005 27.0176C39.7069 27.3626 38.9995 27.8371 38.3784 28.4409C37.7573 29.0448 37.2829 29.7435 36.9551 30.5371C36.6273 31.3307 36.4548 32.1934 36.4375 33.125C36.4375 33.7288 36.5151 34.2809 36.6704 34.7812C36.8257 35.2816 37.0068 35.8078 37.2139 36.3599L26.5 47.0479V49.6875H29.8125V46.375H33.125V43.0625H36.4375V40.7075L38.8442 38.3267C39.5343 38.7235 40.1986 39.0599 40.8369 39.3359C41.4753 39.612 42.2171 39.75 43.0625 39.75Z" fill="#7001FD"/>
</svg>

